<svg xmlns="http://www.w3.org/2000/svg" xmlns:xlink="http://www.w3.org/1999/xlink" id="exportSvg" width="600" height="510"><defs/><rect width="600" height="510" transform="translate(0, 0)" fill="rgb(255, 255, 255)" style="fill: rgb(255, 255, 255);"/><g><g id="__svelte-dw-svg" clip-path="url(#rect-mask-BjmSKejXQNE32ay3MgaKQ)"><clipPath id="rect-mask-BjmSKejXQNE32ay3MgaKQ"><rect x="0" y="0" width="600" height="510"/></clipPath><g id="container-svg container-header-svg datawrapper-EXgD9-5c5xuk-svg"><text transform="translate(0, 0)"><tspan fill="rgb(0,0,0)" x="0" y="22" style="font-family: Roboto; font-weight: 700; font-stretch: 100%; font-size: 22px;">As Female High School Graduation Rates Increased, Teen</tspan><tspan fill="rgb(0,0,0)" x="0" y="47" style="font-family: Roboto; font-weight: 700; font-stretch: 100%; font-size: 22px;">Birth Rates for Ages 15-19 Declined in the U.S. Over the</tspan><tspan fill="rgb(0,0,0)" x="0" y="72" style="font-family: Roboto; font-weight: 700; font-stretch: 100%; font-size: 22px;">Past 40 Years</tspan></text><text transform="translate(0, 85)"><tspan fill="rgb(24,24,24)" x="0" y="14" style="font-family: Roboto; font-weight: 400; font-stretch: 100%; font-size: 14px;">Experts link the sharp decline in the U.S. teen birth rate since 1980 to higher female high school</tspan><tspan fill="rgb(24,24,24)" x="0" y="31" style="font-family: Roboto; font-weight: 400; font-stretch: 100%; font-size: 14px;">graduation rates, which gave women more career opportunities and options than having a baby.</tspan></text></g><g id="chart-svg"><g id="svg-main-svg" clip-path="url(#rect-mask-AVXPyoRMWGxxoNw7yaPPb)" transform="translate(0, 129)"><clipPath id="rect-mask-AVXPyoRMWGxxoNw7yaPPb"><rect x="0" y="0" width="600" height="329"/></clipPath><g id="group-svg" transform="translate(19.73828, 6)"><g id="x-grid-svg"/><g id="y-grid-svg"><g id="y-grid-lines-svg grid-y-svg datawrapper-EXgD9-1fn7900-svg"><line x1="0" x2="511.26171875" y1="0" y2="0" transform="translate(0, 5.94118)" style="fill: none; stroke-width: 1; stroke-linejoin: miter; stroke-linecap: butt; stroke: rgb(231, 231, 231);"/><line x1="0" x2="511.26171875" y1="0" y2="0" transform="translate(0, 38.94771)" style="fill: none; stroke-width: 1; stroke-linejoin: miter; stroke-linecap: butt; stroke: rgb(231, 231, 231);"/><line x1="0" x2="511.26171875" y1="0" y2="0" transform="translate(0, 71.95425)" style="fill: none; stroke-width: 1; stroke-linejoin: miter; stroke-linecap: butt; stroke: rgb(231, 231, 231);"/><line x1="0" x2="511.26171875" y1="0" y2="0" transform="translate(0, 104.96078)" style="fill: none; stroke-width: 1; stroke-linejoin: miter; stroke-linecap: butt; stroke: rgb(231, 231, 231);"/><line x1="0" x2="511.26171875" y1="0" y2="0" transform="translate(0, 137.96732)" style="fill: none; stroke-width: 1; stroke-linejoin: miter; stroke-linecap: butt; stroke: rgb(231, 231, 231);"/><line x1="0" x2="511.26171875" y1="0" y2="0" transform="translate(0, 170.97386)" style="fill: none; stroke-width: 1; stroke-linejoin: miter; stroke-linecap: butt; stroke: rgb(231, 231, 231);"/><line x1="0" x2="511.26171875" y1="0" y2="0" transform="translate(0, 203.98039)" style="fill: none; stroke-width: 1; stroke-linejoin: miter; stroke-linecap: butt; stroke: rgb(231, 231, 231);"/><line x1="0" x2="511.26171875" y1="0" y2="0" transform="translate(0, 236.98693)" style="fill: none; stroke-width: 1; stroke-linejoin: miter; stroke-linecap: butt; stroke: rgb(231, 231, 231);"/><line x1="0" x2="511.26171875" y1="0" y2="0" transform="translate(0, 269.99346)" style="fill: none; stroke-width: 1; stroke-linejoin: miter; stroke-linecap: butt; stroke: rgb(231, 231, 231);"/></g></g><g id="area-fills-svg"/><g id="lines-svg"><g id="Birth-svg Rate-svg"><path d="M9.624,128.065L21.362,130.706L33.068,130.046L44.774,133.346L56.481,135.987L68.219,134.667L79.925,137.307L91.631,135.987L103.338,128.065L115.076,113.873L126.782,105.291L138.488,98.029L150.195,102.65L161.933,106.281L173.639,108.592L185.345,115.523L197.052,123.444L208.79,130.376L220.496,134.337L232.202,139.288L243.909,145.559L255.647,154.471L267.353,162.392L279.059,167.343L290.766,169.324L302.504,171.964L314.21,167.343L325.916,166.023L337.623,170.314L349.361,177.905L361.067,190.118L372.773,199.69L384.48,205.961L396.218,215.533L407.924,223.124L419.63,229.395L431.337,235.997L443.075,240.948L454.781,245.569L466.487,247.879L478.194,253.49L489.932,257.121L501.638,258.111" stroke="rgb(250,140,0)" id="Birth Rate" style="fill: none; stroke-width: 3; stroke-linejoin: round; stroke-linecap: round; stroke: rgb(250, 140, 0);"/></g><g id="Graduation-svg Rate-svg"><path d="M9.624,85.817ZM68.219,60.402ZM126.782,47.199L138.488,44.559L150.195,41.588L161.933,38.948L173.639,36.637L185.345,33.667L197.052,33.667L208.79,31.686L220.496,29.376L232.202,27.725L243.909,25.745L255.647,25.085L267.353,24.425L279.059,22.444L290.766,21.124L302.504,20.794L314.21,19.474L325.916,17.824L337.623,15.183L349.361,15.513L361.067,13.863L372.773,12.542L384.48,12.542L396.218,10.562L407.924,9.572L419.63,9.902L431.337,7.261L443.075,5.941L454.781,5.281L466.487,4.291L478.194,1.65L489.932,0.66L501.638,0" stroke="rgb(255,91,131)" id="Graduation Rate" style="fill: none; stroke-width: 3; stroke-linejoin: round; stroke-linecap: round; stroke: rgb(255, 91, 131);"/></g></g><g id="line-symbols-svg"><path d="M1,0A1,1,0,1,1,-1,0A1,1,0,1,1,1,0" transform="translate(9.62354, 128.06536) scale(3.5)" style="fill: rgb(250, 140, 0);"/><path d="M1,0A1,1,0,1,1,-1,0A1,1,0,1,1,1,0" transform="translate(501.63818, 258.11111) scale(3.5)" style="fill: rgb(250, 140, 0);"/><path d="M1,0A1,1,0,1,1,-1,0A1,1,0,1,1,1,0" transform="translate(9.62354, 85.81699) scale(2.5)" style="fill: rgb(255, 91, 131);"/><path d="M1,0A1,1,0,1,1,-1,0A1,1,0,1,1,1,0" transform="translate(501.63818, 0) scale(2.5)" style="fill: rgb(255, 91, 131);"/></g><g id="lbl-connect-lines-svg"/><g id="x-grid-svg"><g id="x-tick-labels-svg date-axis-svg grid-x-svg datawrapper-EXgD9-63wp0p-svg" transform="translate(0, 308)"><text transform="translate(9.62354, 12) translate(-13.60742, 0) translate(13.607421875, 0)" style="text-anchor: middle;"><tspan fill="rgb(116, 116, 116)" style="font-family: Roboto; font-weight: 400; font-stretch: 100%; font-size: 12px;" x="0" dominant-baseline="auto" y="0">1980</tspan></text><text transform="translate(68.21885, 12) translate(-13.60742, 0) translate(13.607421875, 0)" style="text-anchor: middle;"><tspan fill="rgb(116, 116, 116)" style="font-family: Roboto; font-weight: 400; font-stretch: 100%; font-size: 12px;" x="0" dominant-baseline="auto" y="0">1985</tspan></text><text transform="translate(126.7821, 12) translate(-13.60742, 0) translate(13.607421875, 0)" style="text-anchor: middle;"><tspan fill="rgb(116, 116, 116)" style="font-family: Roboto; font-weight: 400; font-stretch: 100%; font-size: 12px;" x="0" dominant-baseline="auto" y="0">1990</tspan></text><text transform="translate(185.34534, 12) translate(-13.60742, 0) translate(13.607421875, 0)" style="text-anchor: middle;"><tspan fill="rgb(116, 116, 116)" style="font-family: Roboto; font-weight: 400; font-stretch: 100%; font-size: 12px;" x="0" dominant-baseline="auto" y="0">1995</tspan></text><text transform="translate(243.90859, 12) translate(-13.60741, 0) translate(13.607414245605469, 0)" style="text-anchor: middle;"><tspan fill="rgb(116, 116, 116)" style="font-family: Roboto; font-weight: 400; font-stretch: 100%; font-size: 12px;" x="0" dominant-baseline="auto" y="0">2000</tspan></text><text transform="translate(302.50391, 12) translate(-13.60742, 0) translate(13.607421875, 0)" style="text-anchor: middle;"><tspan fill="rgb(116, 116, 116)" style="font-family: Roboto; font-weight: 400; font-stretch: 100%; font-size: 12px;" x="0" dominant-baseline="auto" y="0">2005</tspan></text><text transform="translate(361.06715, 12) translate(-13.60742, 0) translate(13.607421875, 0)" style="text-anchor: middle;"><tspan fill="rgb(116, 116, 116)" style="font-family: Roboto; font-weight: 400; font-stretch: 100%; font-size: 12px;" x="0" dominant-baseline="auto" y="0">2010</tspan></text><text transform="translate(419.6304, 12) translate(-13.60742, 0) translate(13.607421875, 0)" style="text-anchor: middle;"><tspan fill="rgb(116, 116, 116)" style="font-family: Roboto; font-weight: 400; font-stretch: 100%; font-size: 12px;" x="0" dominant-baseline="auto" y="0">2015</tspan></text><text transform="translate(478.19364, 12) translate(-13.60742, 0) translate(13.607421875, 0)" style="text-anchor: middle;"><tspan fill="rgb(116, 116, 116)" style="font-family: Roboto; font-weight: 400; font-stretch: 100%; font-size: 12px;" x="0" dominant-baseline="auto" y="0">2020</tspan></text></g></g><g id="y-grid-svg"><g id="y-tick-labels-svg number-axis-svg grid-y-svg datawrapper-EXgD9-5tsm27-svg" transform="translate(-5, 0)"><text transform="translate(0, 307) translate(-7, 0) translate(7, 0)" style="text-anchor: end;"><tspan fill="rgb(162, 162, 162)" style="font-family: Roboto; font-weight: 400; font-stretch: 100%; font-size: 12px;" x="0" dominant-baseline="auto" y="0">0</tspan></text><text transform="translate(0, 273.99346) translate(-13.73828, 0) translate(13.73828125, 0)" style="text-anchor: end;"><tspan fill="rgb(162, 162, 162)" style="font-family: Roboto; font-weight: 400; font-stretch: 100%; font-size: 12px;" x="0" dominant-baseline="auto" y="0">10</tspan></text><text transform="translate(0, 240.98693) translate(-13.73828, 0) translate(13.73828125, 0)" style="text-anchor: end;"><tspan fill="rgb(162, 162, 162)" style="font-family: Roboto; font-weight: 400; font-stretch: 100%; font-size: 12px;" x="0" dominant-baseline="auto" y="0">20</tspan></text><text transform="translate(0, 207.98039) translate(-13.73828, 0) translate(13.73828125, 0)" style="text-anchor: end;"><tspan fill="rgb(162, 162, 162)" style="font-family: Roboto; font-weight: 400; font-stretch: 100%; font-size: 12px;" x="0" dominant-baseline="auto" y="0">30</tspan></text><text transform="translate(0, 174.97386) translate(-13.73828, 0) translate(13.73828125, 0)" style="text-anchor: end;"><tspan fill="rgb(162, 162, 162)" style="font-family: Roboto; font-weight: 400; font-stretch: 100%; font-size: 12px;" x="0" dominant-baseline="auto" y="0">40</tspan></text><text transform="translate(0, 141.96732) translate(-13.73828, 0) translate(13.73828125, 0)" style="text-anchor: end;"><tspan fill="rgb(162, 162, 162)" style="font-family: Roboto; font-weight: 400; font-stretch: 100%; font-size: 12px;" x="0" dominant-baseline="auto" y="0">50</tspan></text><text transform="translate(0, 108.96078) translate(-13.73828, 0) translate(13.73828125, 0)" style="text-anchor: end;"><tspan fill="rgb(162, 162, 162)" style="font-family: Roboto; font-weight: 400; font-stretch: 100%; font-size: 12px;" x="0" dominant-baseline="auto" y="0">60</tspan></text><text transform="translate(0, 75.95425) translate(-13.73828, 0) translate(13.73828125, 0)" style="text-anchor: end;"><tspan fill="rgb(162, 162, 162)" style="font-family: Roboto; font-weight: 400; font-stretch: 100%; font-size: 12px;" x="0" dominant-baseline="auto" y="0">70</tspan></text><text transform="translate(0, 42.94771) translate(-13.73828, 0) translate(13.73828125, 0)" style="text-anchor: end;"><tspan fill="rgb(162, 162, 162)" style="font-family: Roboto; font-weight: 400; font-stretch: 100%; font-size: 12px;" x="0" dominant-baseline="auto" y="0">80</tspan></text><text transform="translate(0, 9.94118) translate(-13.73828, 0) translate(13.73828125, 0)" style="text-anchor: end;"><tspan fill="rgb(162, 162, 162)" style="font-family: Roboto; font-weight: 400; font-stretch: 100%; font-size: 12px;" x="0" dominant-baseline="auto" y="0">90</tspan></text></g><g id="y-base-lines-svg grid-y-svg datawrapper-EXgD9-1io9s9d-svg"><line x1="511.26171875" x2="0" y1="0" y2="0" transform="translate(0, 303)" style="fill: none; stroke-width: 1; stroke-linejoin: miter; stroke-linecap: square; stroke: rgb(24, 24, 24);"/></g></g></g></g><g id="Teen-svg Birth-svg Rate-svg"><text transform="translate(530.984375, 388.109375)"><tspan x="0" y="12" style="font-family: Roboto; font-weight: 400; font-stretch: 100%; font-size: 12px; stroke: rgb(255, 255, 255); stroke-width: 1; stroke-linejoin: round; stroke-linecap: round;">Teen Birth</tspan><tspan x="0" y="26" style="font-family: Roboto; font-weight: 400; font-stretch: 100%; font-size: 12px; stroke: rgb(255, 255, 255); stroke-width: 1; stroke-linejoin: round; stroke-linecap: round;">Rate</tspan></text><text transform="translate(530.984375, 388.109375)"><tspan fill="rgb(189,89,0)" x="0" y="12" style="font-family: Roboto; font-weight: 400; font-stretch: 100%; font-size: 12px;">Teen Birth</tspan><tspan fill="rgb(189,89,0)" x="0" y="26" style="font-family: Roboto; font-weight: 400; font-stretch: 100%; font-size: 12px;">Rate</tspan></text></g><g id="Female-svg High-svg School-svg Graduation-svg Rate-svg"><text transform="translate(530.984375, 130)"><tspan x="0" y="12" style="font-family: Roboto; font-weight: 400; font-stretch: 100%; font-size: 12px; stroke: rgb(255, 255, 255); stroke-width: 1; stroke-linejoin: round; stroke-linecap: round;">Female</tspan><tspan x="0" y="26" style="font-family: Roboto; font-weight: 400; font-stretch: 100%; font-size: 12px; stroke: rgb(255, 255, 255); stroke-width: 1; stroke-linejoin: round; stroke-linecap: round;">High</tspan><tspan x="0" y="40" style="font-family: Roboto; font-weight: 400; font-stretch: 100%; font-size: 12px; stroke: rgb(255, 255, 255); stroke-width: 1; stroke-linejoin: round; stroke-linecap: round;">School</tspan><tspan x="0" y="54" style="font-family: Roboto; font-weight: 400; font-stretch: 100%; font-size: 12px; stroke: rgb(255, 255, 255); stroke-width: 1; stroke-linejoin: round; stroke-linecap: round;">Graduation</tspan><tspan x="0" y="68" style="font-family: Roboto; font-weight: 400; font-stretch: 100%; font-size: 12px; stroke: rgb(255, 255, 255); stroke-width: 1; stroke-linejoin: round; stroke-linecap: round;">Rate</tspan></text><text transform="translate(530.984375, 130)"><tspan fill="rgb(216,51,100)" x="0" y="12" style="font-family: Roboto; font-weight: 400; font-stretch: 100%; font-size: 12px;">Female</tspan><tspan fill="rgb(216,51,100)" x="0" y="26" style="font-family: Roboto; font-weight: 400; font-stretch: 100%; font-size: 12px;">High</tspan><tspan fill="rgb(216,51,100)" x="0" y="40" style="font-family: Roboto; font-weight: 400; font-stretch: 100%; font-size: 12px;">School</tspan><tspan fill="rgb(216,51,100)" x="0" y="54" style="font-family: Roboto; font-weight: 400; font-stretch: 100%; font-size: 12px;">Graduation</tspan><tspan fill="rgb(216,51,100)" x="0" y="68" style="font-family: Roboto; font-weight: 400; font-stretch: 100%; font-size: 12px;">Rate</tspan></text></g><g id="svelte-12ankjc-svg" transform="translate(29.73438, 266)"><g id="callout-line-svg"><path d="M 6.2822894004481835,22.000000000000004 Q 2.631765205947704,14.743884756255188 0.9232395154458404,5.996942378127593" stroke="rgb(24,24,24)" style="fill: none; stroke-width: 2; stroke-linejoin: miter; stroke-linecap: butt; stroke: rgb(24, 24, 24);"/><path d="M-4.75,-3.75 L 0,0 L -4.75,3.75" stroke="rgb(24,24,24)" transform="translate(0.92324, 5.99694) rotate(-105.27778195101916) scale(1.12862)" style="fill: none; stroke-width: 1.77207; stroke-linejoin: miter; stroke-linecap: butt; stroke: rgb(24, 24, 24);"/></g></g><text transform="translate(29.734375, 292)"><tspan fill="rgb(24,24,24)" x="0" y="13" style="font-family: Roboto; font-weight: 400; font-stretch: 100%; font-size: 13px;">In 1980, 5.3% </tspan><tspan fill="rgb(24,24,24)" x="0" y="28.59375" style="font-family: Roboto; font-weight: 400; font-stretch: 100%; font-size: 13px;">of teen girls </tspan><tspan fill="rgb(24,24,24)" x="0" y="44.1875" style="font-family: Roboto; font-weight: 400; font-stretch: 100%; font-size: 13px;">were moms.</tspan></text><g id="svelte-12ankjc-svg" transform="translate(29.73438, 220)"><g id="callout-line-svg"><path d="M 13.502207302730465,-25.000000000000007 Q 6.823421208270442,-16.54162957334235 2.182829794249815,-5.59860277433953" stroke="rgb(24,24,24)" style="fill: none; stroke-width: 2; stroke-linejoin: miter; stroke-linecap: butt; stroke: rgb(24, 24, 24);"/><path d="M-4.75,-3.75 L 0,0 L -4.75,3.75" stroke="rgb(24,24,24)" transform="translate(2.18283, -5.5986) rotate(116.02053698815814) scale(1.50195)" style="fill: none; stroke-width: 1.3316; stroke-linejoin: miter; stroke-linecap: butt; stroke: rgb(24, 24, 24);"/></g></g><text transform="translate(23.734375, 144)"><tspan fill="rgb(24,24,24)" x="0" y="13" style="font-family: Roboto; font-weight: 400; font-stretch: 100%; font-size: 13px;">Meanwhile, only about </tspan><tspan fill="rgb(24,24,24)" x="0" y="28.59375" style="font-family: Roboto; font-weight: 400; font-stretch: 100%; font-size: 13px;">66% of women graduate </tspan><tspan fill="rgb(24,24,24)" x="0" y="44.1875" style="font-family: Roboto; font-weight: 400; font-stretch: 100%; font-size: 13px;">from high school.</tspan></text><g id="tooltip-layer-svg" clip-path="url(#rect-mask-nR5iXKvvQnztg3lJAEGr6)" transform="translate(0, 129)"><clipPath id="rect-mask-nR5iXKvvQnztg3lJAEGr6"><rect x="0" y="0" width="600" height="329"/></clipPath><g id="group-svg" transform="translate(19.73828, 6)"/></g></g><g id="container-svg container-footer-svg datawrapper-EXgD9-1o125dc-svg"><text transform="translate(0, 478)"><tspan fill="rgb(101,101,101)" x="0" y="12" style="font-family: Roboto; font-weight: 400; font-stretch: 100%; font-style: italic; font-size: 12px;">Teen Birth Rate Data From CDC National Vital Statistics Reports; High School Graduation Data From Statista</tspan></text><text transform="translate(0, 497)"><tspan fill="rgb(136,136,136)" x="0" y="11" style="font-family: Roboto; font-weight: 400; font-stretch: 100%; font-size: 11px;">Chart:</tspan><tspan fill="rgb(136,136,136)" dx="2.734375" style="font-family: Roboto; font-weight: 400; font-stretch: 100%; font-size: 11px;">Julie Zhu</tspan><tspan fill="rgb(136,136,136)" dx="2.739" style="font-family: Roboto; font-weight: 400; font-stretch: 100%; font-size: 11px;">•</tspan><tspan fill="rgb(136,136,136)" dx="2.739" style="font-family: Roboto; font-weight: 400; font-stretch: 100%; font-size: 11px;">Source:</tspan><tspan fill="rgb(136,136,136)" dx="2.734375" style="font-family: Roboto; font-weight: 400; font-stretch: 100%; font-size: 11px;">Statista</tspan><tspan fill="rgb(136,136,136)" dx="2.739" style="font-family: Roboto; font-weight: 400; font-stretch: 100%; font-size: 11px;">•</tspan><tspan fill="rgb(136,136,136)" dx="2.739" style="font-family: Roboto; font-weight: 400; font-stretch: 100%; font-size: 11px;">Created with</tspan><tspan fill="rgb(136,136,136)" dx="2.734375" style="font-family: Roboto; font-weight: 400; font-stretch: 100%; font-size: 11px;">Datawrapper</tspan></text></g></g></g></svg>